<svg xmlns="http://www.w3.org/2000/svg" xmlns:xlink="http://www.w3.org/1999/xlink" version="1.1" id="Layer_1" x="0px" y="0px" viewBox="0 0 274 165" style="enable-background:new 0 0 274 165;" xml:space="preserve">
    <path id="path0_fill" fill="#E61736" d="M183.8,40.8v19.4h29.7c0,0.1-0.1,0.1-0.1,0.1c-4.8,13-16.4,21.4-29.7,21.4  c-17.2,0-31.2-14-31.2-31.2c0-17.2,14-31.2,31.2-31.2c8.9,0,17.3,3.8,23.2,10.4l14.5-12.9C211.9,6.1,198.2,0,183.8,0  c-19.4,0-36.3,11-44.8,27.1c3.5,7.3,5.4,15.4,5.4,24c0,8.4-1.9,16.4-5.2,23.5c8.6,15.8,25.3,26.6,44.6,26.6  c21.5,0,40.3-13.4,47.9-34.2c2.2-6.2,2.4-14.8,2.4-16.5v-9.7H183.8z"/>
    <path id="path1_fill" fill="#E61736" d="M88.6,101.2c-27.9,0-50.6-22.7-50.6-50.6c0-27.9,22.7-50.6,50.6-50.6  c14.4,0,28.1,6.1,37.7,16.9l-14.5,12.9c-5.9-6.6-14.4-10.4-23.2-10.4c-17.2,0-31.2,14-31.2,31.2c0,17.2,14,31.2,31.2,31.2  c13.3,0,24.9-8.4,29.7-21.4c0-0.1,0.1-0.1,0.1-0.1H88.6V40.9h50.3v9.7c0,1.6-0.1,10.3-2.4,16.5C128.9,87.8,110.1,101.2,88.6,101.2z"/>
    <path id="path2_fill" fill="#E61736" d="M0.7,164.3v-40.8h29.9v9.2H11.2v31.6H0.7z"/>
    <path id="path3_fill" fill="#E61736" d="M36.3,164.3v-40.8h20.5c9.2,0,14.2,6.2,14.2,13.6c0,7.3-5,13.5-14.2,13.5h-9.9v13.7L36.3,164.3  L36.3,164.3z M60.2,137.1c0-2.8-2.1-4.4-4.9-4.4h-8.5v8.8h8.5C58.1,141.4,60.2,139.8,60.2,137.1z"/>
    <path id="path4_fill" fill="#E61736" d="M98.9,164.3l-2-5.9H80.8l-2,5.9h-12l15.4-40.8h13.2l15.4,40.8H98.9z M88.8,133.9l-5.2,15.3H94  L88.8,133.9z"/>
    <path id="path5_fill" fill="#E61736" d="M141.3,164.3v-16.4h-16.9v16.4h-10.5v-40.8h10.5v15.2h16.9v-15.2h10.5v40.8H141.3z"/>
    <path id="path6_fill" fill="#E61736" d="M158,164.3v-40.8h29.9v9.2h-19.4v6.4h19v9.2h-19v6.9h19.4v9.2L158,164.3L158,164.3z"/>
    <path id="path7_fill" fill="#E61736" d="M193,155.7c3.8,0,6.3-2.2,7.4-11.6l2.5-20.7h30.4v40.8h-10.5v-31.6h-10.4l-1.5,12.3  c-2,16.5-8.9,20.1-17.9,20.1L193,155.7L193,155.7z"/>
    <path id="path8_fill" fill="#E61736" d="M249.9,123.5v13.7h9.9c9.2,0,14.2,6.2,14.2,13.5c0,7.4-5,13.6-14.2,13.6h-20.5v-40.8  L249.9,123.5L249.9,123.5z M249.9,146.4v8.8h8.5c2.8,0,4.9-1.6,4.9-4.4c0-2.7-2.1-4.3-4.9-4.3L249.9,146.4L249.9,146.4z"/>
</svg>
